<?xml version="1.0" encoding="utf-8"?>
<svg viewBox="0 0 165 41" fill="none" xmlns="http://www.w3.org/2000/svg" xmlns:xlink="http://www.w3.org/1999/xlink">
  <defs>
    <path id="path-0" style="fill: none;" d="M 45.47 11.051 C 60.258 19.224 77.765 20.32 93.081 23.124 C 108.197 25.444 117.839 27.518 127.451 28.479 C 132.468 28.981 137.676 28.511 142.64 29.356 C 150.286 29.258 154.263 28.683 158.414 28.09 C 159.397 27.949 160.538 27.019 161.432 27.019 C 162.756 25.792 162.524 21.622 163.379 19.911"/>
  </defs>
  <path fill-rule="evenodd" clip-rule="evenodd" d="M20.6841 40.138C31.7298 40.138 40.6841 31.1837 40.6841 20.138C40.6841 9.09234 31.7298 0.138031 20.6841 0.138031C9.63837 0.138031 0.684082 9.09234 0.684082 20.138C0.684082 31.1837 9.63837 40.138 20.6841 40.138ZM26.9234 9.45487C27.2271 8.37608 26.1802 7.73816 25.2241 8.41933L11.8772 17.9276C10.8403 18.6663 11.0034 20.138 12.1222 20.138H15.6368V20.1108H22.4866L16.9053 22.0801L14.4448 30.8212C14.1411 31.9 15.1879 32.5379 16.1441 31.8567L29.491 22.3485C30.5279 21.6098 30.3647 20.138 29.246 20.138H23.9162L26.9234 9.45487Z" fill="#F15757" transform="matrix(0.9999999999999999, 0, 0, 0.9999999999999999, -1.7763568394002505e-15, -3.552713678800501e-15)"/>
  <text style="fill: rgb(51, 51, 51); font-family: Arial, sans-serif; font-size: 28px; white-space: pre;" transform="matrix(0.9999999999999999, 0, 0, 0.9999999999999999, -1.7763568394002505e-15, -3.552713678800501e-15)"><textPath xlink:href="#path-0"> </textPath></text>
  <text style="white-space: pre; fill: rgb(51, 51, 51); font-family: Arial, sans-serif; font-size: 28px;" x="87.239" y="22.151" transform="matrix(0.9999999999999999, 0, 0, 0.9999999999999999, -1.7763568394002505e-15, -3.552713678800501e-15)"><tspan x="87.23899841308594" dy="1em">​</tspan></text>
  <g transform="matrix(0.9999999999999999, 0, 0, 0.9999999999999999, -1.7763568394002505e-15, -3.552713678800501e-15)">
    <path transform="matrix(1.039628, 0, 0, 1, -9.016663, 0.973652)" style="fill: rgb(51, 51, 51);"/>
    <path d="M 54.606 30.111 Q 53.598 30.111 52.786 29.271 Q 51.974 28.431 51.974 26.499 Q 51.974 24.931 52.338 23.419 Q 52.702 21.907 53.164 20.353 Q 53.626 18.799 53.948 17.133 Q 54.27 15.467 54.158 13.619 Q 53.402 13.731 52.674 14.011 Q 51.946 14.291 51.246 14.823 Q 51.246 13.059 51.554 11.953 Q 51.862 10.847 52.758 10.343 Q 53.654 9.839 55.418 9.839 Q 56.37 9.839 57.546 9.979 Q 58.722 10.119 59.968 10.259 Q 61.214 10.399 62.334 10.399 Q 63.426 10.399 64.294 10.189 Q 65.162 9.979 65.638 9.419 Q 66.198 9.783 66.492 10.413 Q 66.786 11.043 66.786 11.771 Q 66.786 12.527 66.436 13.241 Q 66.086 13.955 65.358 14.417 Q 64.63 14.879 63.454 14.879 Q 62.222 14.879 60.766 14.487 Q 59.31 14.095 57.77 13.815 Q 57.91 14.431 57.98 15.047 Q 58.05 15.663 58.05 16.307 Q 58.05 17.007 57.994 17.693 Q 57.938 18.379 57.826 19.107 Q 58.414 18.799 59.254 18.547 Q 60.094 18.295 60.976 18.127 Q 61.858 17.959 62.558 17.959 Q 63.006 17.959 63.342 18.043 Q 63.622 18.631 63.622 19.471 Q 63.622 20.815 62.95 22.215 L 62.754 22.299 Q 61.718 21.739 60.36 21.431 Q 59.002 21.123 57.518 21.011 Q 57.238 22.607 56.986 24.259 Q 56.734 25.911 56.734 27.647 Q 56.734 28.011 56.748 28.403 Q 56.762 28.795 56.79 29.187 Q 55.866 30.111 54.606 30.111 Z M 71.349 15.019 Q 70.229 15.019 69.515 14.333 Q 68.801 13.647 68.801 12.611 Q 68.801 11.491 69.641 10.679 Q 70.481 9.867 71.685 9.867 Q 72.805 9.867 73.519 10.567 Q 74.233 11.267 74.233 12.303 Q 74.233 13.423 73.393 14.221 Q 72.553 15.019 71.349 15.019 Z M 69.389 30.111 Q 68.297 30.111 67.429 29.341 Q 66.561 28.571 66.561 26.863 Q 66.561 25.883 66.827 25.029 Q 67.093 24.175 67.443 23.363 Q 67.793 22.551 68.059 21.781 Q 68.325 21.011 68.325 20.255 Q 68.325 19.583 68.101 19.289 Q 67.877 18.995 67.569 18.995 Q 67.093 18.995 66.645 19.611 L 66.449 19.499 Q 66.561 18.379 67.163 17.581 Q 67.765 16.783 68.647 16.335 Q 69.529 15.887 70.397 15.887 Q 71.461 15.887 72.245 16.573 Q 73.029 17.259 73.029 18.799 Q 73.029 19.723 72.763 20.745 Q 72.497 21.767 72.147 22.775 Q 71.797 23.783 71.531 24.651 Q 71.265 25.519 71.265 26.135 Q 71.265 26.667 71.475 26.891 Q 71.685 27.115 71.937 27.115 Q 72.189 27.115 72.427 26.961 Q 72.665 26.807 72.777 26.611 L 72.973 26.667 Q 72.973 27.703 72.427 28.473 Q 71.881 29.243 71.069 29.677 Q 70.257 30.111 69.389 30.111 Z M 78.125 30.111 Q 77.369 30.111 76.655 29.733 Q 75.941 29.355 75.493 28.515 Q 75.045 27.675 75.045 26.359 Q 75.045 25.183 75.367 23.601 Q 75.689 22.019 76.095 20.311 Q 76.501 18.603 76.809 16.979 Q 77.117 15.355 77.089 14.095 Q 77.089 12.891 76.809 12.387 L 76.781 12.303 Q 77.089 11.407 77.873 10.903 Q 78.657 10.399 79.525 10.399 Q 80.505 10.399 81.275 11.141 Q 82.045 11.883 82.045 13.619 Q 82.045 14.543 81.821 15.817 Q 81.597 17.091 81.289 18.533 Q 80.981 19.975 80.659 21.375 Q 80.337 22.775 80.113 23.951 Q 79.889 25.127 79.889 25.883 Q 79.889 26.667 80.113 26.961 Q 80.337 27.255 80.617 27.255 Q 80.925 27.255 81.205 27.017 Q 81.485 26.779 81.569 26.583 L 81.793 26.639 Q 81.765 27.647 81.219 28.431 Q 80.673 29.215 79.847 29.663 Q 79.021 30.111 78.125 30.111 Z M 89.268 30.195 Q 87.224 30.195 85.88 29.369 Q 84.536 28.543 83.864 27.185 Q 83.192 25.827 83.192 24.259 Q 83.192 22.775 83.766 21.277 Q 84.34 19.779 85.446 18.547 Q 86.552 17.315 88.134 16.559 Q 89.716 15.803 91.704 15.803 Q 94.168 15.803 95.302 16.909 Q 96.436 18.015 96.436 19.583 Q 96.436 20.927 95.722 22.061 Q 95.008 23.195 93.832 23.881 Q 92.656 24.567 91.256 24.567 Q 90.528 24.567 89.772 24.343 Q 89.016 24.119 88.288 23.643 Q 88.428 25.379 89.296 26.163 Q 90.164 26.947 91.368 26.947 Q 92.208 26.947 93.048 26.625 Q 93.888 26.303 94.602 25.785 Q 95.316 25.267 95.708 24.679 L 95.904 24.819 Q 95.904 26.275 95.302 27.297 Q 94.7 28.319 93.72 28.963 Q 92.74 29.607 91.578 29.901 Q 90.416 30.195 89.268 30.195 Z M 89.912 22.635 Q 90.808 22.635 91.368 22.117 Q 91.928 21.599 92.208 20.899 Q 92.488 20.199 92.488 19.667 Q 92.488 19.023 92.124 18.589 Q 91.76 18.155 91.116 18.155 Q 90.612 18.155 90.01 18.519 Q 89.408 18.883 88.932 19.765 Q 88.456 20.647 88.316 22.215 Q 89.212 22.635 89.912 22.635 Z M 101.279 30.111 Q 100.411 30.111 99.753 29.663 Q 99.095 29.215 99.123 28.319 Q 99.179 26.751 99.361 24.847 Q 99.543 22.943 99.795 20.969 Q 100.047 18.995 100.313 17.175 Q 100.579 15.355 100.803 13.927 Q 100.299 13.871 99.823 13.843 Q 99.347 13.815 98.955 13.815 Q 97.779 13.815 96.841 14.039 Q 95.903 14.263 95.259 14.823 Q 95.259 13.059 95.553 11.953 Q 95.847 10.847 96.645 10.343 Q 97.443 9.839 98.983 9.839 Q 100.103 9.839 101.489 10.021 Q 102.875 10.203 104.303 10.399 Q 105.731 10.595 106.963 10.595 Q 107.971 10.595 108.769 10.399 Q 109.567 10.203 109.987 9.699 Q 110.603 9.895 110.939 10.553 Q 111.275 11.211 111.275 11.995 Q 111.275 12.695 110.967 13.353 Q 110.659 14.011 109.987 14.445 Q 109.315 14.879 108.167 14.879 Q 107.635 14.879 106.865 14.781 Q 106.095 14.683 105.227 14.571 Q 104.919 16.251 104.597 18.589 Q 104.275 20.927 104.065 23.615 Q 103.855 26.303 103.799 29.075 Q 103.295 29.607 102.609 29.859 Q 101.923 30.111 101.279 30.111 Z M 112.228 30.111 Q 110.772 30.111 109.862 29.257 Q 108.952 28.403 108.952 26.611 Q 108.952 25.715 109.162 24.721 Q 109.372 23.727 109.638 22.761 Q 109.904 21.795 110.1 21.011 Q 110.296 20.227 110.296 19.751 Q 110.296 19.275 110.1 19.065 Q 109.904 18.855 109.624 18.855 Q 109.344 18.855 109.064 19.037 Q 108.784 19.219 108.588 19.583 L 108.364 19.499 Q 108.42 18.351 109.008 17.539 Q 109.596 16.727 110.478 16.307 Q 111.36 15.887 112.256 15.887 Q 112.984 15.887 113.656 16.181 Q 114.328 16.475 114.734 17.077 Q 115.14 17.679 115.112 18.603 Q 115.084 19.219 114.888 20.115 Q 114.692 21.011 114.426 22.033 Q 114.16 23.055 113.964 24.007 Q 113.768 24.959 113.768 25.687 Q 113.768 26.303 113.95 26.667 Q 114.132 27.031 114.58 27.031 Q 115.056 27.031 115.84 26.527 Q 116.624 26.023 117.408 25.071 Q 117.24 23.503 117.24 22.299 Q 117.24 19.219 118.15 17.847 Q 119.06 16.475 120.432 16.475 Q 121.44 16.475 121.804 17.147 Q 122.168 17.819 122.168 18.939 Q 122.168 20.591 121.608 22.047 Q 121.048 23.503 120.292 24.371 Q 120.348 25.631 120.81 26.331 Q 121.272 27.031 121.916 27.031 Q 122.56 27.031 123.246 26.303 Q 123.932 25.575 124.436 24.063 Q 124.94 22.551 125.024 20.227 Q 125.052 18.351 124.772 17.483 L 124.772 17.343 Q 125.164 16.699 126.018 16.237 Q 126.872 15.775 127.74 15.775 Q 128.356 15.775 128.874 16.125 Q 129.392 16.475 129.7 17.413 Q 130.008 18.351 129.924 20.115 Q 129.84 22.579 129.112 24.441 Q 128.384 26.303 127.25 27.563 Q 126.116 28.823 124.8 29.467 Q 123.484 30.111 122.196 30.111 Q 120.74 30.111 119.536 29.313 Q 118.332 28.515 117.716 27.059 Q 116.456 28.375 115.126 29.243 Q 113.796 30.111 112.228 30.111 Z M 136.475 15.019 Q 135.355 15.019 134.641 14.333 Q 133.927 13.647 133.927 12.611 Q 133.927 11.491 134.767 10.679 Q 135.607 9.867 136.811 9.867 Q 137.931 9.867 138.645 10.567 Q 139.359 11.267 139.359 12.303 Q 139.359 13.423 138.519 14.221 Q 137.679 15.019 136.475 15.019 Z M 134.515 30.111 Q 133.423 30.111 132.555 29.341 Q 131.687 28.571 131.687 26.863 Q 131.687 25.883 131.953 25.029 Q 132.219 24.175 132.569 23.363 Q 132.919 22.551 133.185 21.781 Q 133.451 21.011 133.451 20.255 Q 133.451 19.583 133.227 19.289 Q 133.003 18.995 132.695 18.995 Q 132.219 18.995 131.771 19.611 L 131.575 19.499 Q 131.687 18.379 132.289 17.581 Q 132.891 16.783 133.773 16.335 Q 134.655 15.887 135.523 15.887 Q 136.587 15.887 137.371 16.573 Q 138.155 17.259 138.155 18.799 Q 138.155 19.723 137.889 20.745 Q 137.623 21.767 137.273 22.775 Q 136.923 23.783 136.657 24.651 Q 136.391 25.519 136.391 26.135 Q 136.391 26.667 136.601 26.891 Q 136.811 27.115 137.063 27.115 Q 137.315 27.115 137.553 26.961 Q 137.791 26.807 137.903 26.611 L 138.099 26.667 Q 138.099 27.703 137.553 28.473 Q 137.007 29.243 136.195 29.677 Q 135.383 30.111 134.515 30.111 Z M 144.762 30.251 Q 143.026 30.251 141.878 29.775 Q 140.73 29.299 140.17 28.557 Q 139.61 27.815 139.61 27.059 Q 139.61 25.995 140.562 25.169 Q 141.514 24.343 143.138 24.343 Q 143.138 25.771 143.502 26.625 Q 143.866 27.479 144.44 27.843 Q 145.014 28.207 145.546 28.207 Q 146.19 28.207 146.624 27.829 Q 147.058 27.451 147.058 26.891 Q 147.058 26.107 146.246 25.519 Q 145.434 24.931 144.146 24.203 Q 143.502 23.811 142.746 23.293 Q 141.99 22.775 141.458 22.033 Q 140.926 21.291 140.926 20.255 Q 140.926 19.163 141.556 18.323 Q 142.186 17.483 143.222 16.909 Q 144.258 16.335 145.462 16.041 Q 146.666 15.747 147.814 15.747 Q 149.97 15.747 151.062 16.615 Q 152.154 17.483 152.154 18.463 Q 152.154 19.303 151.314 19.975 Q 150.474 20.647 148.738 20.647 Q 148.766 19.219 148.15 18.561 Q 147.534 17.903 146.834 17.903 Q 146.33 17.903 145.994 18.211 Q 145.658 18.519 145.658 19.107 Q 145.658 19.779 146.092 20.269 Q 146.526 20.759 147.184 21.137 Q 147.842 21.515 148.542 21.851 Q 149.494 22.299 150.334 22.803 Q 151.174 23.307 151.706 23.951 Q 152.238 24.595 152.238 25.519 Q 152.238 26.779 151.216 27.857 Q 150.194 28.935 148.486 29.593 Q 146.778 30.251 144.762 30.251 Z M 157.837 30.111 Q 156.941 30.111 156.143 29.705 Q 155.345 29.299 154.855 28.431 Q 154.365 27.563 154.365 26.219 Q 154.365 25.491 154.505 24.315 Q 154.645 23.139 154.883 21.739 Q 155.121 20.339 155.373 18.939 Q 154.813 18.967 154.295 19.051 Q 153.777 19.135 153.273 19.247 L 153.217 19.051 Q 153.777 18.379 154.393 17.903 Q 155.009 17.427 155.681 17.119 Q 156.045 15.271 156.297 13.913 Q 156.549 12.555 156.549 12.303 Q 156.549 11.827 157.291 11.519 Q 158.033 11.211 158.957 11.211 Q 159.769 11.211 160.483 11.519 Q 161.197 11.827 161.449 12.555 Q 161.281 12.723 160.973 13.801 Q 160.665 14.879 160.329 16.419 Q 160.861 16.447 161.421 16.475 Q 161.981 16.503 162.569 16.559 Q 162.625 16.727 162.653 16.923 Q 162.681 17.119 162.681 17.343 Q 162.681 17.763 162.555 18.253 Q 162.429 18.743 162.261 19.135 Q 161.589 19.079 161.001 19.009 Q 160.413 18.939 159.853 18.911 Q 159.629 20.115 159.447 21.319 Q 159.265 22.523 159.167 23.503 Q 159.069 24.483 159.069 25.043 Q 159.069 26.219 159.503 26.611 Q 159.937 27.003 160.553 27.003 Q 161.113 27.003 161.561 26.779 Q 162.009 26.555 162.205 26.247 L 162.485 26.331 Q 162.317 27.479 161.589 28.333 Q 160.861 29.187 159.853 29.649 Q 158.845 30.111 157.837 30.111 Z" transform="matrix(1.039628, 0, 0, 1, -9.016663, 0.973652)" style="fill: rgb(51, 51, 51);"/>
    <path transform="matrix(1.039628, 0, 0, 1, -9.016663, 0.973652)" style="fill: rgb(51, 51, 51);"/>
    <path transform="matrix(1.039628, 0, 0, 1, -9.016663, 0.973652)" style="fill: rgb(51, 51, 51);"/>
  </g>
  <text style="white-space: pre; fill: rgb(51, 51, 51); font-family: Arial, sans-serif; font-size: 28px;" x="170.097" y="12.933" transform="matrix(0.9999999999999999, 0, 0, 0.9999999999999999, -20.09700072100759, -3.552713678800501e-15)"><tspan x="170.0970001220703" dy="1em">​</tspan></text>
  <text style="white-space: pre; fill: rgb(51, 51, 51); font-family: Arial, sans-serif; font-size: 28px;" x="163.379" y="10.207" transform="matrix(0.9999999999999999, 0, 0, 0.9999999999999999, -23.3789984994828, -3.552713678800501e-15)"><tspan x="163.37899780273438" dy="1em">​</tspan></text>
  <text style="white-space: pre; fill: rgb(51, 51, 51); font-family: Arial, sans-serif; font-size: 28px;" x="160.75" y="-4.885" transform="matrix(0.9999999999999999, 0, 0, 0.9999999999999999, -1.7763568394002505e-15, -3.552713678800501e-15)"><tspan x="160.75" dy="1em">​</tspan></text>
  <text style="white-space: pre; fill: rgb(51, 51, 51); font-family: Arial, sans-serif; font-size: 28px;" x="1.363" y="-19.295" transform="matrix(0.9999999999999999, 0, 0, 0.9999999999999999, -1.7763568394002505e-15, -3.552713678800501e-15)"><tspan x="1.3630000352859497" dy="1em">​</tspan></text>
  <text style="white-space: pre; fill: rgb(51, 51, 51); font-family: Arial, sans-serif; font-size: 28px;" x="87.824" y="0.957" transform="matrix(0.9999999999999999, 0, 0, 0.9999999999999999, 6.62084503831997, 1.7525769994430753)"><tspan x="87.8239974975586" dy="1em">​</tspan></text>
  <text style="white-space: pre; fill: rgb(51, 51, 51); font-family: Arial, sans-serif; font-size: 28px;" x="66.111" y="18.71" transform="matrix(0.9999999999999999, 0, 0, 0.9999999999999999, -1.7763568394002505e-15, -3.552713678800501e-15)"><tspan x="66.11100006103516" dy="1em">​</tspan></text>
</svg>